# xmcd
# 
# Track frame offsets:
#     150
#     18009
#     34031
#     49156
#     62413
#     87707
#     105428
#     127150
#     140596
#     155764
#     174788
#     193355
#     208346
# 
# Disc length: 3095
# 
# Revision: 0
# Processed by: cddbd v1.5.2PL0 Copyright (c) Steve Scherf et al.
# Submitted via: fre:ac v1.0.31
# 
DISCID=b90c150d
DTITLE=Christmas - Bob James And Hillary James Christmas Eyes
DYEAR=0
DGENRE=Christmas
TTITLE0=Christmas Eyes (Vocal)
TTITLE1=Winter Wonderland
TTITLE2=Bells Of Paradise
TTITLE3=Silent Night
TTITLE4=Mercy
TTITLE5=A Star Was His Nightlight
TTITLE6=On This Day (Personent Hodie
TTITLE7=The Little drummer Boy
TTITLE8=Ye Shepherds
TTITLE9=Ballulalow
TTITLE10=Greensleeves
TTITLE11=Have Yourself A Merry Little Christmas
TTITLE12=Christmas Eyes (Reprise)
EXTD=
EXTT0=
EXTT1=
EXTT2=
EXTT3=
EXTT4=
EXTT5=
EXTT6=
EXTT7=
EXTT8=
EXTT9=
EXTT10=
EXTT11=
EXTT12=
PLAYORDER=
